<?xml version="1.0" encoding="UTF-8"?>
<svg id="Layer_3" data-name="Layer 3" xmlns="http://www.w3.org/2000/svg" viewBox="0 0 283.25 240">
  <defs>
    <style>
      .cls-1 {
        fill: #48602c;
      }
    </style>
  </defs>
  <path class="cls-1" d="M120.08,184.93c-.19-13.89-.29-20.83,0-28.1,0-.11.31-7.66,0-17.22-.08-2.42-.14-3.22-.26-4.15-.35-2.68-1.2-8.71-5.74-14.51-4.42-5.66-9.85-7.89-12.26-8.89-2.99-1.23-5.36-1.6-5.96-1.69-3.01-.44-5.34-.17-6.14-.09-6.11.65-12.29.27-18.44.26-8.45,0-17.62-.19-21.34-.26-3.94-.08-14.01-.3-25.55.79-2.32.22-6.46.59-10.8,3.16-2.63,1.56-4.44,3.39-5.55,4.68-.78.7-1.81,1.71-2.86,3.07-2.1,2.74-3.04,5.28-3.6,6.84-.44,1.23-1.18,3.32-1.44,6.12-.08.81-.09,1.66-.12,3.36-.05,2.92,0,5.11,0,5.28.08,3.66.22,18.48.12,28.7,0,0-.19,20-.12,26.9,0,.96.04,3.35.36,6.48.08.82.26,2.51.48,3.72.96,5.17,4.24,8.92,5.88,10.81,3.03,3.47,6.08,5.33,7.8,6.36,1.79,1.07,4.21,2.5,7.68,3.24,1.3.28,2.31.37,3.6.48,4.09.35,7.24.07,8.17,0h47.19c3.16,0,6.33-.11,9.49,0,.48.02,1.71.07,3.36,0,1.72-.07,3.27-.23,4.08-.36,3.6-.56,6.57-2.49,8.29-3.6,1.18-.76,4.32-2.92,7.32-6.72.76-.96,3.1-4.03,4.8-8.53,1.08-2.85,1.37-4.86,1.44-5.4.31-2.31.15-4.08.1-4.73-.42-5.32.07-10.68,0-16.02ZM107.62,182.15c.06,4.32-.34,8.66,0,12.97.04.53.17,1.96-.08,3.83-.06.44-.29,2.06-1.17,4.38-1.38,3.64-3.28,6.13-3.89,6.9-2.44,3.08-4.98,4.83-5.93,5.44-1.39.9-3.8,2.46-6.71,2.92-.66.1-1.91.24-3.31.29-1.34.05-2.34.01-2.72,0-2.56-.09-5.12,0-7.68,0h-38.21c-.75.06-3.3.28-6.61,0-1.04-.09-1.86-.16-2.92-.39-2.81-.6-4.77-1.76-6.22-2.63-1.39-.83-3.86-2.34-6.32-5.15-1.33-1.53-3.99-4.57-4.76-8.75-.18-.98-.32-2.35-.39-3.01-.26-2.54-.28-4.47-.29-5.25-.06-5.59.1-21.78.1-21.78.08-8.27-.03-20.27-.1-23.24,0-.14-.04-1.91,0-4.28.02-1.38.04-2.07.1-2.72.21-2.27.81-3.96,1.17-4.96.45-1.26,1.21-3.32,2.92-5.54.85-1.1,1.68-1.92,2.31-2.49.9-1.05,2.37-2.53,4.49-3.79,3.52-2.09,6.87-2.38,8.75-2.56,9.35-.88,17.5-.7,20.69-.64,3.01.06,10.43.21,17.28.21,4.98,0,9.98.31,14.93-.21.64-.07,2.53-.28,4.97.07.48.07,2.41.37,4.83,1.37,1.95.81,6.35,2.61,9.93,7.2,3.67,4.7,4.37,9.58,4.65,11.75.1.76.15,1.4.21,3.36.25,7.74,0,13.86,0,13.95-.24,5.89-.16,11.51,0,22.75Z"/>
  <path class="cls-1" d="M88.42,160.79c-1.04-3.45-2.83-9.1-8.13-13.98-5.34-4.92-11.19-6.24-13.98-6.83-1.54-.33-9.56-1.91-18.86,1.63-2.36.9-6.71,2.6-10.73,6.5-10.43,10.14-8.59,25.33-8.45,26.34.24,1.75,2.32,15.21,14.63,22.76,2.18,1.33,10,5.75,20.16,4.23,7.74-1.16,12.8-5.15,15.28-7.15,2.69-2.18,7.82-6.44,10.41-13.98,2.96-8.64.7-16.12-.33-19.51ZM78.56,176.95c-1.69,4.95-5.06,7.75-6.83,9.17-1.63,1.32-4.95,3.93-10.03,4.69-6.67,1-11.8-1.9-13.22-2.77-8.08-4.95-9.44-13.78-9.6-14.93-.09-.66-1.3-10.63,5.55-17.28,2.64-2.56,5.49-3.68,7.04-4.27,6.1-2.32,11.36-1.28,12.37-1.07,1.83.39,5.67,1.25,9.17,4.48,3.48,3.2,4.65,6.91,5.33,9.17.67,2.22,2.15,7.13.21,12.8Z"/>
  <path class="cls-1" d="M87.1,130.55c-.63.24-1.79.69-2.86,1.73-2.78,2.7-2.29,6.75-2.25,7.02.06.47.62,4.05,3.9,6.07.58.36,2.66,1.53,5.37,1.13,2.06-.31,3.41-1.37,4.07-1.91.72-.58,2.08-1.72,2.77-3.73.79-2.3.19-4.3-.09-5.2-.28-.92-.75-2.43-2.17-3.73-1.42-1.31-2.98-1.66-3.73-1.82-.41-.09-2.55-.51-5.03.43Z"/>
</svg>