<?xml version="1.0" encoding="UTF-8"?>
<svg id="Layer_1" data-name="Layer 1" xmlns="http://www.w3.org/2000/svg" viewBox="0 0 369.02 105.69">
  <defs>
    <style>
      .cls-1 {
        fill: #231f20;
        font-family: LogicMonoscript-Black, 'Logic Monoscript';
        font-size: 36px;
        font-weight: 800;
      }

      .cls-2 {
        fill: #07866d;
      }

      .cls-3 {
        fill: #7c976a;
      }

      .cls-4 {
        fill: #48602c;
      }
    </style>
  </defs>
  <path class="cls-2" d="M66.64,89.27c-1.13,1.22-4.46.31-17.22-6.57-23.94-12.91-35.99-19.58-39.71-30.04-2.69-7.57-2.74-17.77,1.48-20.11,5.09-2.83,15.21,6.54,27.07,16.92,2.6,2.27,10.02,8.95,17.78,19.43,3.98,5.37,13.1,17.69,10.6,20.37Z"/>
  <path class="cls-3" d="M57.99,79.09c2.91-.1,4.81-9.67,6.32-17.32,1.9-9.6,3.53-17.84,2.38-28.14C64.82,16.88,56.11-.8,51.46.03c-5.1.9-4.99,24.03-4.95,31.54.02,3.45.2,13.43,3.03,26.17,1.45,6.52,4.78,21.49,8.45,21.36Z"/>
  <path class="cls-4" d="M73.02,105.67c-4.02.55-5.03-12.58-14.91-18.05-1.84-1.02-5.7-1.48-13.34-2.35-15.84-1.82-17.35-1.03-23.55-2.35C11.09,80.74-.5,75.3.02,71.92c.47-3.08,10.9-4.02,16.48-3.92,1.73.03,9.61.28,18.84,4.71,4.72,2.27,5.71,4.06,8.89,6.44.92.69,2.25,1.68,4.07,2.58,1.9.93,5.9,2.91,7.47,1.65,1.57-1.28-.48-4.91-1.27-9.91-1.21-7.67,1.26-13.97,3.44-19.28,2.47-6,5.32-9.51,11.01-16.52,3.9-4.8,5.46-5.88,6.54-5.51,1.21.42,1.59,2.59,1.72,8.95.17,8.14.27,12.59-.69,19.62-.84,6.17-1.46,10.76-3.44,15.83-.45,1.17-1.72,4.25-3.44,8.95-.78,2.12-1.81,3.09-1.72,4.82.11,2.1,1.4,3.66,3.26,5.85,2.83,3.34,4.57,3.81,4.64,5.57.06,1.59-1.26,3.72-2.8,3.93Z"/>
  <text class="cls-1" transform="translate(86.28 47.9)"><tspan x="0" y="0">Green Leaf</tspan></text>
  <text class="cls-1" transform="translate(88.22 89.79)"><tspan x="0" y="0">Illustrations</tspan></text>
</svg>