<?xml version="1.0" encoding="UTF-8"?>
<svg id="Layer_1" data-name="Layer 1" xmlns="http://www.w3.org/2000/svg" viewBox="0 0 366.21 105.69">
  <defs>
    <style>
      .cls-1 {
        fill: #07866d;
      }

      .cls-2 {
        fill: #231f20;
      }

      .cls-3 {
        fill: #7c976a;
      }

      .cls-4 {
        fill: #48602c;
      }
    </style>
  </defs>
  <path class="cls-1" d="M66.64,89.27c-1.13,1.22-4.46.31-17.22-6.57-23.94-12.91-35.99-19.58-39.71-30.04-2.69-7.57-2.74-17.77,1.48-20.11,5.09-2.83,15.21,6.54,27.07,16.92,2.6,2.27,10.02,8.95,17.78,19.43,3.98,5.37,13.1,17.69,10.6,20.37Z"/>
  <path class="cls-3" d="M57.99,79.09c2.91-.1,4.81-9.67,6.32-17.32,1.9-9.6,3.53-17.84,2.38-28.14C64.82,16.88,56.11-.8,51.46.03c-5.1.9-4.99,24.03-4.95,31.54.02,3.45.2,13.43,3.03,26.17,1.45,6.52,4.78,21.49,8.45,21.36Z"/>
  <path class="cls-4" d="M73.02,105.67c-4.02.55-5.03-12.58-14.91-18.05-1.84-1.02-5.7-1.48-13.34-2.35-15.84-1.82-17.35-1.03-23.55-2.35C11.09,80.74-.5,75.3.02,71.92c.47-3.08,10.9-4.02,16.48-3.92,1.73.03,9.61.28,18.84,4.71,4.72,2.27,5.71,4.06,8.89,6.44.92.69,2.25,1.68,4.07,2.58,1.9.93,5.9,2.91,7.47,1.65,1.57-1.28-.48-4.91-1.27-9.91-1.21-7.67,1.26-13.97,3.44-19.28,2.47-6,5.32-9.51,11.01-16.52,3.9-4.8,5.46-5.88,6.54-5.51,1.21.42,1.59,2.59,1.72,8.95.17,8.14.27,12.59-.69,19.62-.84,6.17-1.46,10.76-3.44,15.83-.45,1.17-1.72,4.25-3.44,8.95-.78,2.12-1.81,3.09-1.72,4.82.11,2.1,1.4,3.66,3.26,5.85,2.83,3.34,4.57,3.81,4.64,5.57.06,1.59-1.26,3.72-2.8,3.93Z"/>
  <g>
    <path class="cls-2" d="M100.39,43.55l.9-2.77h-3.67l1.19-4.21h8.64l-1.66,5.4c.72-.43,1.37-.97,1.98-1.62l2.74,3.82c-3.17,2.74-7.34,4.17-12.09,4.17-6.55,0-10.51-3.46-10.51-9.21,0-6.98,4.9-12.35,11.19-12.35,2.38,0,4.1.79,5.11,2.34l.61-2.05h4.86l-2.3,7.74h-4.86l.5-1.69c-.72-.9-1.94-1.48-3.24-1.48-3.56,0-5.98,2.88-5.98,7.09,0,3.28,1.66,4.9,5,4.9.54,0,1.08-.04,1.58-.07Z"/>
    <path class="cls-2" d="M107.7,40.42c2.92-2.74,5.11-6.88,6.55-10.8h5.11c-.22.72-.47,1.4-.72,2.09h8.82l-3.67,9.75c-.43,1.15-.11,1.76.97,1.76,1.55,0,4.07-.94,9.86-3.67l-1.51,5.29c-5.33,2.52-7.56,3.2-10.33,3.2-3.74,0-5.58-2.92-4.21-6.69l1.98-5.4h-3.74c-1.66,3.2-3.67,5.76-6.33,8.24l-2.77-3.78Z"/>
    <path class="cls-2" d="M131.13,40.67c0-5.22,4.54-9.32,10.37-9.32,4.43,0,7.56,2.09,7.56,5,0,3.38-3.42,5.36-9.32,5.36-.54,0,.14.04-3.06-.22.54,1.58,2.09,2.41,4.5,2.41,3.28,0,7.2-1.44,15.44-5.65l-1.51,5.33c-5.65,3.02-10.69,4.64-14.33,4.64-5.76,0-9.65-3.06-9.65-7.56ZM136.78,38.47c.76.04,1.58.07,2.84.07,2.52,0,4.21-.68,4.21-1.66,0-.83-.9-1.37-2.34-1.37-2.3,0-4.03,1.15-4.72,2.95Z"/>
    <path class="cls-2" d="M152.73,40.67c0-5.22,4.54-9.32,10.37-9.32,4.43,0,7.56,2.09,7.56,5,0,3.38-3.42,5.36-9.32,5.36-.54,0,.14.04-3.06-.22.54,1.58,2.09,2.41,4.5,2.41,3.28,0,7.2-1.44,15.44-5.65l-1.51,5.33c-5.65,3.02-10.69,4.64-14.33,4.64-5.76,0-9.65-3.06-9.65-7.56ZM158.38,38.47c.76.04,1.58.07,2.84.07,2.52,0,4.21-.68,4.21-1.66,0-.83-.9-1.37-2.34-1.37-2.3,0-4.03,1.15-4.72,2.95Z"/>
    <path class="cls-2" d="M176.85,35.95h-2.16l1.19-4.25h7.81l-1.12,3.85c2.09-2.84,4.03-4.1,6.12-4.1,2.92,0,4.5,2.66,3.46,5.76l-1.76,5.22c-.18.54-.04.83.4.83.58,0,1.87-.58,3.74-1.69l1.87,3.85c-3.13,1.8-5.72,2.74-7.74,2.74-3.38,0-4.86-2.27-3.74-5.76l1.37-4.32c.36-1.15-.04-1.94-.94-1.94-.97,0-2.09.72-3.6,2.34l-2.7,9.43h-5.62l3.42-11.95Z"/>
    <path class="cls-2" d="M218.39,43.59l3.53-12.2h-2.56l1.22-4.32h11.34l-1.22,4.32h-2.88l-3.53,12.2h5.62l.9-3.13h4.93l-2.12,7.45h-19l1.22-4.32h2.56Z"/>
    <path class="cls-2" d="M239.13,40.67c0-5.22,4.54-9.32,10.37-9.32,4.43,0,7.56,2.09,7.56,5,0,3.38-3.42,5.36-9.32,5.36-.54,0,.14.04-3.06-.22.54,1.58,2.09,2.41,4.5,2.41,3.28,0,7.2-1.44,15.44-5.65l-1.51,5.33c-5.65,3.02-10.69,4.64-14.33,4.64-5.76,0-9.65-3.06-9.65-7.56ZM244.78,38.47c.76.04,1.58.07,2.84.07,2.52,0,4.21-.68,4.21-1.66,0-.83-.9-1.37-2.34-1.37-2.3,0-4.03,1.15-4.72,2.95Z"/>
    <path class="cls-2" d="M259.76,41.42c0-5.43,4.18-9.97,9.21-9.97,2.16,0,3.85.68,4.97,1.98l.5-1.73h5.62l-3.1,10.76c-.18.5-.04.83.4.83.68,0,2.88-.97,8.46-3.74l-1.51,5.29c-4.5,2.3-7.31,3.28-9.29,3.28-2.41,0-3.78-1.15-3.96-3.17-1.76,2.2-3.6,3.24-5.58,3.24-3.31,0-5.72-2.84-5.72-6.77ZM268.11,43.73c.9,0,1.84-.36,3.28-1.3v-.04l1.44-4.97c-.94-.9-1.98-1.37-3.1-1.37-2.48,0-4.36,2.05-4.36,4.75,0,1.8,1.04,2.92,2.74,2.92Z"/>
    <path class="cls-2" d="M288.31,29.76c1.19-4.07,3.85-6.26,7.56-6.26,4.03,0,6.77,2.34,6.77,5.76,0,4.68-4.36,9.11-12.85,13.39l-.22.68c3.64-.11,6.91-.83,11.23-2.34l1.3,4.32c-4.17,1.58-8.93,2.41-13.75,2.41h-.04l-2.12,7.38h-5.22l7.34-25.34ZM291.33,36.96c3.53-2.23,6.05-4.9,6.05-6.7,0-1.12-.72-1.84-1.84-1.84s-1.84.72-2.27,2.12l-1.94,6.41Z"/>
  </g>
  <g>
    <path class="cls-2" d="M94.95,85.47l3.53-12.2h-4.93l1.22-4.32h15.77l-1.22,4.32h-4.93l-3.53,12.2h4.93l-1.22,4.32h-15.77l1.22-4.32h4.93Z"/>
    <path class="cls-2" d="M116.8,82.59l3.42-11.95h-5.47l1.26-4.25h11.12l-4.97,17.21c-.36,1.26.07,1.98,1.19,1.98,2.27,0,6.98-1.87,13.61-5.44l-1.51,5.33c-6.98,3.49-10.69,4.75-13.79,4.75-4.14,0-6.15-3.13-4.86-7.63Z"/>
    <path class="cls-2" d="M136.82,80.21l2.66-1.37,2.34-8.21h-5.47l1.26-4.25h11.12l-4.97,17.21c-.36,1.26.07,1.98,1.19,1.98,2.27,0,6.98-1.87,13.61-5.44l-1.51,5.33c-6.98,3.49-10.69,4.75-13.79,4.75-3.67,0-5.65-2.45-5.18-6.12l-2.77,1.44,1.51-5.33Z"/>
    <path class="cls-2" d="M164.79,85.5c-2.2,3.13-4.14,4.54-6.26,4.54-2.99,0-4.39-2.45-3.42-5.87l1.84-6.34h-2.23l1.19-4.25h7.85l-2.81,9.79c-.32,1.15.07,1.91,1.01,1.91s1.94-.72,3.46-2.38l2.63-9.32h5.69l-2.99,10.4c-.14.5-.04.76.36.76.58,0,1.91-.97,3.42-2.52l2.74,3.82c-2.92,2.74-5.51,4.03-7.99,4.03-3.13,0-4.75-1.73-4.46-4.57Z"/>
    <path class="cls-2" d="M174.44,82.3c3.31-3.2,5.72-5.98,8.57-9.83h5.9c-.65.94-1.3,1.84-1.94,2.74l2.81,2.88c2.56,2.59,3.53,4.25,3.53,5.98,0,.32-.04.65-.18.97,1.19-.4,3.28-1.33,8.24-3.6l-1.51,5.29c-5.65,2.56-9.58,3.56-14.04,3.56-2.27,0-4.5-.43-6.44-1.19l1.66-3.92c1.73.58,2.66.76,3.89.76,1.8,0,2.88-.65,2.88-1.73,0-.86-.5-1.66-2.02-3.13l-1.94-1.91c-2.2,2.63-4.39,4.93-6.62,6.91l-2.77-3.78Z"/>
    <path class="cls-2" d="M201.29,81.47l1.3-.68.83-2.95h-5.33l1.22-4.25h5.33l1.33-4.64h5.62l-1.33,4.64h7.59l-1.22,4.25h-7.59l-1.51,5.29c-.47,1.73.32,2.48,2.59,2.48,2.77,0,5.22-1.08,7.6-3.38l2.74,3.82c-3.38,2.88-7.24,4.39-11.27,4.39-4.43,0-7.09-1.73-7.45-4.68l-1.94,1.01,1.51-5.29Z"/>
    <path class="cls-2" d="M217.64,82.3c2.92-2.74,5.11-6.88,6.55-10.8h5.11c-.22.72-.47,1.4-.72,2.09h8.82l-3.67,9.75c-.43,1.15-.11,1.76.97,1.76,1.55,0,4.07-.94,9.86-3.67l-1.51,5.29c-5.33,2.52-7.56,3.2-10.33,3.2-3.74,0-5.58-2.92-4.21-6.7l1.98-5.4h-3.74c-1.66,3.2-3.67,5.76-6.33,8.24l-2.77-3.78Z"/>
    <path class="cls-2" d="M240.1,83.31c0-5.44,4.18-9.97,9.21-9.97,2.16,0,3.85.68,4.97,1.98l.5-1.73h5.62l-3.1,10.76c-.18.5-.04.83.4.83.68,0,2.88-.97,8.46-3.74l-1.51,5.29c-4.5,2.3-7.31,3.28-9.29,3.28-2.41,0-3.78-1.15-3.96-3.17-1.76,2.2-3.6,3.24-5.58,3.24-3.31,0-5.72-2.84-5.72-6.77ZM248.45,85.61c.9,0,1.84-.36,3.28-1.3v-.04l1.44-4.97c-.94-.9-1.98-1.37-3.1-1.37-2.48,0-4.36,2.05-4.36,4.75,0,1.8,1.04,2.92,2.74,2.92Z"/>
    <path class="cls-2" d="M266.09,81.47l1.3-.68.83-2.95h-5.33l1.22-4.25h5.33l1.33-4.64h5.62l-1.33,4.64h7.59l-1.22,4.25h-7.59l-1.44,5.04c-.47,1.62.07,2.48,1.58,2.48,2.34,0,6.19-1.4,14.18-5.22l-1.51,5.33c-7.02,3.35-10.94,4.61-14.15,4.61-3.6,0-5.69-1.58-5.98-4.32l-1.94,1.01,1.51-5.29Z"/>
    <path class="cls-2" d="M288.02,80.21l3.56-1.84.18-.65-5.72.11,1.22-4.25h11.01l-2.88,10.04c-.36,1.26.04,1.94,1.19,1.94,2.02,0,6.34-1.8,13.17-5.44l-1.51,5.33c-7.13,3.63-10.26,4.75-13.46,4.75-3.85,0-5.69-2.66-4.68-6.66l-3.6,1.98,1.51-5.33ZM293.42,68.15c0-2.16,1.69-3.85,3.92-3.85,1.8,0,3.2,1.4,3.2,3.24,0,2.16-1.73,3.82-3.96,3.82-1.8,0-3.17-1.4-3.17-3.2Z"/>
    <path class="cls-2" d="M315.2,90c-5.47,0-9.39-3.17-9.39-7.59,0-5.11,4.32-9.11,9.86-9.11,4.68,0,8.32,3.2,8.32,7.31,0,1.37-.25,2.56-.86,3.63,2.23-.94,5.08-2.38,8.24-4.1l-1.51,5.33c-6.19,3.2-10.51,4.54-14.65,4.54ZM318.69,81.4c0-2.02-1.4-3.53-3.46-3.53-2.23,0-4.03,1.87-4.03,4.18,0,2.02,1.4,3.53,3.46,3.53,2.23,0,4.03-1.87,4.03-4.17Z"/>
    <path class="cls-2" d="M336.83,73.59l-1.12,3.85c2.09-2.84,4.03-4.1,6.12-4.1,2.92,0,4.5,2.63,3.46,5.76l-1.55,4.68c-.18.54-.04.83.4.83.54,0,1.66-.83,3.17-2.38l2.74,3.82c-2.95,2.74-5.51,4.03-7.99,4.03-3.49,0-5.11-2.3-4-5.8l1.37-4.32c.36-1.15-.04-1.94-.94-1.94-.97,0-2.09.72-3.6,2.34l-2.7,9.43h-5.62l3.42-11.95h-2.16l1.19-4.25h7.81Z"/>
    <path class="cls-2" d="M347.24,82.3c3.31-3.2,5.72-5.98,8.57-9.83h5.9c-.65.94-1.3,1.84-1.94,2.74l2.81,2.88c2.66,2.74,3.64,4.39,3.64,6.16,0,3.42-3.31,5.98-7.85,5.98-2.12,0-4.28-.36-6.19-1.12l1.66-3.92c1.73.58,2.66.76,3.89.76,1.8,0,2.88-.65,2.88-1.73,0-.86-.5-1.66-2.02-3.13l-1.94-1.91c-2.2,2.63-4.39,4.93-6.62,6.91l-2.77-3.78Z"/>
  </g>
</svg>